<svg width="168" height="24" viewBox="0 0 168 24" fill="none" xmlns="http://www.w3.org/2000/svg">
<path d="M16.19 2H7.81C4.17 2 2 4.17 2 7.81V16.18C2 19.83 4.17 22 7.81 22H16.18C19.82 22 21.99 19.83 21.99 16.19V7.81C22 4.17 19.83 2 16.19 2ZM12 15.88C9.86 15.88 8.12 14.14 8.12 12C8.12 9.86 9.86 8.12 12 8.12C14.14 8.12 15.88 9.86 15.88 12C15.88 14.14 14.14 15.88 12 15.88ZM17.92 6.88C17.87 7 17.8 7.11 17.71 7.21C17.61 7.3 17.5 7.37 17.38 7.42C17.26 7.47 17.13 7.5 17 7.5C16.73 7.5 16.48 7.4 16.29 7.21C16.2 7.11 16.13 7 16.08 6.88C16.03 6.76 16 6.63 16 6.5C16 6.37 16.03 6.24 16.08 6.12C16.13 5.99 16.2 5.89 16.29 5.79C16.52 5.56 16.87 5.45 17.19 5.52C17.26 5.53 17.32 5.55 17.38 5.58C17.44 5.6 17.5 5.63 17.56 5.67C17.61 5.7 17.66 5.75 17.71 5.79C17.8 5.89 17.87 5.99 17.92 6.12C17.97 6.24 18 6.37 18 6.5C18 6.63 17.97 6.76 17.92 6.88Z" fill="#292D32"/>
<path d="M67.9442 8.04822C67.9569 8.22588 67.9569 8.40357 67.9569 8.58123C67.9569 14 63.8326 20.2437 56.2944 20.2437C53.9721 20.2437 51.8147 19.5711 50 18.4036C50.33 18.4417 50.6472 18.4544 50.9898 18.4544C52.9061 18.4544 54.6701 17.8072 56.0787 16.7031C54.2767 16.665 52.7665 15.4848 52.2462 13.8604C52.5 13.8985 52.7538 13.9239 53.0203 13.9239C53.3883 13.9239 53.7564 13.8731 54.099 13.7843C52.2208 13.4036 50.8122 11.7538 50.8122 9.76143V9.71069C51.3578 10.0153 51.9924 10.2056 52.6649 10.231C51.5609 9.4949 50.8375 8.23857 50.8375 6.81724C50.8375 6.05583 51.0406 5.35786 51.3959 4.74871C53.4137 7.23603 56.4467 8.86037 59.8477 9.03807C59.7843 8.7335 59.7462 8.41627 59.7462 8.099C59.7462 5.84009 61.5736 4 63.8452 4C65.0254 4 66.0914 4.49492 66.8401 5.29442C67.7665 5.11676 68.6548 4.7741 69.4416 4.30457C69.137 5.25637 68.4898 6.05587 67.6396 6.56345C68.4645 6.47466 69.264 6.24618 70 5.92895C69.4417 6.7411 68.7437 7.46443 67.9442 8.04822Z" fill="#292D32"/>
<path d="M115.857 2H100.143C99.5745 2 99.0295 2.22576 98.6276 2.62763C98.2258 3.02949 98 3.57454 98 4.14286V19.8571C98 20.4255 98.2258 20.9705 98.6276 21.3724C99.0295 21.7742 99.5745 22 100.143 22H106.27V15.2004H103.458V12H106.27V9.56071C106.27 6.78616 107.922 5.25357 110.452 5.25357C111.663 5.25357 112.93 5.46964 112.93 5.46964V8.19286H111.534C110.159 8.19286 109.73 9.04643 109.73 9.92188V12H112.8L112.309 15.2004H109.73V22H115.857C116.425 22 116.971 21.7742 117.372 21.3724C117.774 20.9705 118 20.4255 118 19.8571V4.14286C118 3.57454 117.774 3.02949 117.372 2.62763C116.971 2.22576 116.425 2 115.857 2Z" fill="#292D32"/>
<path d="M164.571 2H147.424C146.638 2 146 2.64732 146 3.44196V20.558C146 21.3527 146.638 22 147.424 22H164.571C165.357 22 166 21.3527 166 20.558V3.44196C166 2.64732 165.357 2 164.571 2ZM152.045 19.1429H149.08V9.59821H152.049V19.1429H152.045ZM150.562 8.29464C149.612 8.29464 148.844 7.52232 148.844 6.57589C148.844 5.62946 149.612 4.85714 150.562 4.85714C151.509 4.85714 152.281 5.62946 152.281 6.57589C152.281 7.52679 151.513 8.29464 150.562 8.29464ZM163.156 19.1429H160.192V14.5C160.192 13.3929 160.17 11.9688 158.652 11.9688C157.107 11.9688 156.871 13.1741 156.871 14.4196V19.1429H153.906V9.59821H156.75V10.9018H156.79C157.188 10.1518 158.156 9.36161 159.598 9.36161C162.598 9.36161 163.156 11.3393 163.156 13.9107V19.1429Z" fill="#292D32"/>
</svg>
